<svg height="92" viewBox="0 0 55 92" width="55" xmlns="http://www.w3.org/2000/svg"><g fill="none"><path d="m2 15h51v62h-51z" fill="#f2f2f2"/><path d="m37.5596586 15h-35.5596586v-9.41374586c0-1.98046867 1.63220089-3.58625414 3.64524856-3.58625414h43.70950274c2.0130478 0 3.6452487 1.60578547 3.6452487 3.58625414v9.41374586" fill="#a0cdeb"/><path d="m46 17c-.1296874 0-.2617188-.014059-.3898436-.0398341-.1281252-.0257749-.2539064-.0640467-.3757814-.1140345-.1203124-.0499878-.2359374-.1116916-.3445312-.18433-.1101562-.0718575-.2117188-.1554309-.3039062-.247596-.0914064-.0921649-.1757812-.1937027-.2476564-.303832-.0742186-.1077861-.1343748-.2241639-.1843748-.3460094-.05-.120283-.0898438-.2460335-.1132814-.3741272-.0265624-.1280937-.040625-.2600927-.040625-.3897487 0-.1296559.0140626-.2616549.040625-.3897486.0234376-.1280938.0632814-.2538443.1132814-.3741273.05-.1218454.1101562-.2382232.1843748-.3460093.0718752-.1101293.15625-.2116671.2476564-.303832.0921874-.0921651.1945312-.1757385.3039062-.249939.1085938-.0718577.2242188-.1335612.3445312-.183549.121875-.0499878.2476562-.0882599.3757814-.1140348.25625-.0523308.5218748-.0523308.7796874 0 .128125.0257749.2546874.064047.3742188.1140348.121875.0499878.2382812.1116913.3460938.183549.1101562.0742005.2117186.1577739.3039062.249939.0921874.0921649.1757812.1937027.2476562.303832.071875.1077861.134375.2241639.184375.3460093.05.120283.0898438.2460335.1140626.3741273.0257812.1280937.0398436.2600927.0398436.3897486 0 .129656-.0140624.261655-.0398436.3897487-.0242188.1280937-.0640626.2538442-.1140626.3741272-.05.1218455-.1125.2382233-.184375.3460094-.071875.1101293-.1554688.2116671-.2476562.303832-.0921876.0921651-.19375.1757385-.3039062.247596-.1078126.0726384-.2242188.1343422-.3460938.18433-.1203126.0499878-.2460938.0882596-.3742188.1140345-.128125.0257751-.2601562.0398341-.3898438.0398341z" fill="#000"/><path d="m2 77h51v9.4137459c0 1.9804686-1.6315257 3.5862541-3.6446011 3.5862541h-43.71010049c-2.0130752 0-3.64529841-1.6057855-3.64529841-3.5862541z" fill="#a0cdeb"/><path d="m29.3333333 85h-3.6666666c-.920573 0-1.6666667-.8953124-1.6666667-2s.7460937-2 1.6666667-2h3.6666666c.9199219 0 1.6666667.8953124 1.6666667 2s-.7467448 2-1.6666667 2z" fill="#000"/><path d="m45.1900879 11h-26.3801758c-.9996936 0-1.8099121-.8953124-1.8099121-2s.8102185-2 1.8099121-2h26.3801758c.9996936 0 1.8099121.8953124 1.8099121 2s-.8102185 2-1.8099121 2z" fill="#000"/><path d="m45 65v-43h-16v29.0933216z" fill="#05504b"/><path d="m9 70h30l-30-25z" fill="#e6c36e"/><path d="m21 38.3717826v-16.3717826h-11v10.3427591l9.143774 8.6572409" fill="#689f9b"/><path d="m19.8292026 40.7301933-9.8292026-8.7301933v11.8465878l28.5128219 26.1534122h6.4871781v-5.0634264l-9.0868342-8.3835301" fill="#fff"/><path d="m29 34.4535505v-12.4535505h-8v16" fill="#fff"/><path d="m37.8080821 38.3677352c-4.3213825-4.4903136-11.3017645-4.4903136-15.5675537 0-4.3207045 4.4903134-4.3207045 11.6851004 0 16.1754138l7.7559801 7.456851 7.75598-7.3990841c4.3207047-4.4903135 4.3207047-11.7435717.0555936-16.2331807z" fill="#f50a37"/><path d="m49.5270658 0h-44.05342878c-3.01802257 0-5.47363702 2.45175166-5.47363702 5.46502677v81.07064833c0 3.0132751 2.45561445 5.4643249 5.47363702 5.4643249h44.05342878c3.0180227 0 5.4729342-2.4510498 5.4729342-5.4643249v-81.07064833c0-3.01327511-2.4556144-5.46502677-5.4729342-5.46502677zm-45.92765378 5.46502677c0-1.03179923.84080016-1.87127677 1.874225-1.87127677h44.05342878c1.032722 0 1.8735222.83947754 1.8735222 1.87127677v69.64434823h-47.80117598v-58.21875h34.03975198c.9940563 0 1.799706-.8043822 1.799706-1.796875s-.8056497-1.796875-1.799706-1.796875h-34.03975198zm47.80117598 81.06994643c0 1.0317993-.8408002 1.8712768-1.8735222 1.8712768h-44.05342878c-1.03342484 0-1.874225-.8394775-1.874225-1.8712768v-7.8318482h47.80117598z" fill="#000"/><path d="m9.7726958 20c-.97913753 0-1.7726958.8184314-1.7726958 1.8266645v48.346671c0 1.0089468.79355827 1.8266645 1.7726958 1.8266645h35.4546084c.9784449 0 1.7726958-.8177177 1.7726958-1.8266645v-48.346671c0-1.0082331-.7942509-1.8266645-1.7726958-1.8266645zm26.7857104 33.412262-6.6891568 6.3283934-6.6960813-6.3840497c-3.6686494-3.8067402-3.6610323-9.9795816.0311606-13.7848949 1.7636939-1.8402216 4.1208253-2.8591581 6.6365299-2.8670069.0110794-.0007135.0207739-.0007135.0318532-.0007135 2.5295538 0 4.9123062 1.0196498 6.712008 2.8720017 3.6603397 3.8252923 3.6457981 10.0231078-.0263136 13.8362699zm-25.0130146-10.1750921v-7.0497832l6.200973 5.4271915c-.5816658 1.5326856-.8863479 3.1766837-.8863479 4.8663483 0 .5551348.0325455 1.1059882.0976368 1.6489929zm16.5483922-10.0623524c-1.6196624.2276196-3.1652315.7656292-4.5695388 1.5833471v-11.1048357h4.5695388zm-16.5483922-9.5214886h8.4327692v14.1352436c-.1585731.1912287-.3109142.3860255-.4584079.5843897l-7.9743613-6.9791426zm0 24.4437675 22.4010582 20.2495747h-22.4010582zm31.9092168 20.2495747h-4.1312121l-6.8054901-6.152149 3.3390388-3.158845 7.5976634 6.9077885zm0-7.2752621-4.9718577-4.5202811.5020329-.4752181c.0186964-.017125.0367003-.0349636.0547043-.0535156 5.0736493-5.2281135 5.1027325-13.7584938.0643987-19.0172896-.0020772-.0028542-.0048473-.0049949-.0076169-.007849-2.0476023-2.1099402-4.646402-3.4328447-7.4570943-3.8238653v-9.5200614h11.815433z" fill="#000"/><path d="m34 46.4996694c0 2.485267-2.0145502 4.5003306-4.5 4.5003306-2.4854497 0-4.5-2.0150636-4.5-4.5003306 0-2.4852672 2.0145503-4.4996694 4.5-4.4996694 2.4854498 0 4.5 2.0144022 4.5 4.4996694z" fill="#f7f7f7"/><path d="m29.5 53c-3.5838851 0-6.5-2.9159592-6.5-6.500347 0-3.5836938 2.9161149-6.499653 6.5-6.499653s6.5 2.9159592 6.5 6.499653c0 3.5843878-2.9161149 6.500347-6.5 6.500347zm0-9.446153c-1.625 0-2.9459633 1.3215868-2.9459633 2.9465 0 1.6242192 1.3209633 2.945806 2.9459633 2.945806 1.6243059 0 2.9459633-1.3215868 2.9459633-2.945806 0-1.6249132-1.3216574-2.9465-2.9459633-2.9465z" fill="#000"/></g></svg>