<svg height="98" viewBox="0 0 98 98" width="98" xmlns="http://www.w3.org/2000/svg"><g fill="none"><path d="m91.9796095 95.8928648h-86.14997567c-2.65730075 0-4.54151428-2.5908869-3.72290748-5.1190911l13.05442855-40.3094848c.5223562-1.6148269 2.025996-2.7080439 3.7229074-2.7080439h60.0411187c1.6969114 0 3.2005512 1.093217 3.7236536 2.7080439l13.0536823 40.3094848c.8193532 2.5282042-1.0656067 5.1190911-3.7229074 5.1190911z" fill="#36d28f"/><path d="m67.146794 47.756245h11.778387c1.6969114 0 3.2005512 1.093217 3.7236536 2.7080439l13.0536823 40.3094848c.8193532 2.5282042-1.0656067 5.1190911-3.7229074 5.1190911h-86.14997567c-2.65730075 0-4.54151428-2.5908869-3.72290748-5.1190911l13.05442855-40.3094848c.5223562-1.6148269 2.025996-2.7080439 3.7229074-2.7080439z" fill="#e6c36e"/><path d="m82.6488346 50.4635428c-.5231024-1.6140808-2.0267422-2.7072978-3.7236536-2.7072978h-60.0411187c-1.6969114 0-3.2005512 1.093217-3.7229074 2.7072978l-8.09055184 24.9813139h29.41761074l48.3731725-18.1474018z" fill="#689f9b"/><path d="m95.7025169 90.7737737-8.3136725-25.6730629-18.8369122 7.1838906 18.2817221 23.6082634h5.1459552c2.6573007 0 4.5422606-2.5908869 3.7229074-5.1190911z" fill="#05504b"/><path d="m5.16027167 83.6048074h33.21737933l22.7486141-8.5338085 15.8579892 20.8218659h9.7673155l-18.1996376-23.6082634 18.1996376-6.827196-1.8901835-8.1599505-48.3731725 18.1474018h-29.41761074z" fill="#fff"/><path d="m22.7114413 28.1044571c0-14.5282194 11.8276375-26.29317441 26.3782437-26.1930764 14.1857029.09914363 25.8021594 11.6253072 26.0051321 25.8095177.0917855 6.4197583-2.1274821 12.3179064-5.8772539 16.9191185h.0014926l-18.809302 24.1082329c-.7648787.9805372-2.2468779.9805372-3.0117568.0007462l-18.7115467-23.9724202h.0149246c-3.7415632-4.5295749-5.9899336-10.3381762-5.9899336-16.6721187z" fill="#f50a37"/><path d="m63.4216478 28.1044571c0 8.017422-6.4996041 14.5170261-14.5177723 14.5170261-8.0174221 0-14.5170262-6.4996041-14.5170262-14.5170261 0-8.0181682 6.4996041-14.5177722 14.5170262-14.5177722 8.0181682 0 14.5177723 6.499604 14.5177723 14.5177722z" fill="#fff"/><g fill="#000"><path d="m97.5203167 90.1850036-13.0544286-40.3094847c-.7805495-2.4103008-3.0072795-4.0296053-5.5407071-4.0296053h-8.224126l.0238791-.0313414c.0074623-.0089545.0141783-.0179094.0216406-.0276102 4.1303453-5.0959582 6.3518519-11.5179551 6.2578277-18.0936738-.1052175-7.3622381-3.0610077-14.2931592-8.3233735-19.51522901-5.2616198-5.22132385-12.2141813-8.12487816-19.577912-8.17722587-7.5480475-.05734715-14.6491074 2.84695353-20.0010202 8.16230122-5.3534053 5.31609426-8.3009868 12.39775226-8.3009868 19.94132256 0 6.442145 2.2289687 12.721613 6.2817068 17.7108614.0074623.0104471.0149244.0201481.0223867.0305951h-8.2211411c-2.5334276 0-4.7601576 1.6193045-5.5407071 4.0296053l-13.05442855 40.3094847c-.58056175 1.7931742-.27759507 3.6960435.83129254 5.2198312 1.1081414 1.524534 2.82520112 2.3983614 4.70941464 2.3983614h86.14997567c1.8849597 0 3.6012732-.8738274 4.7101608-2.3983614 1.1081414-1.5237877 1.4111081-3.426657.8305464-5.2198312zm-18.5951357-40.5184272c.8715887 0 1.6372136.5566826 1.9058539 1.3857364l1.6513919 5.0981969-28.0221735 10.5120462 13.2603863-16.9959795zm-54.3041547-21.5621193c0-6.5182595 2.5476061-12.6372897 7.1726975-17.2302935 4.6243451-4.59300387 10.7582998-7.09210531 17.2832755-7.05228914 13.1051716.09077275 23.9201846 10.82444724 24.1074865 23.92663424.0813384 5.7041301-1.8528721 11.27394-5.4481756 15.6848654-.0238791.0291025-.0470121.0596978-.0693987.0902929l-18.763036 24.0500274-18.5742417-23.7963115c-.0462657-.0753685-.0977553-.1477523-.1552144-.2178971-3.5811252-4.3340644-5.5533931-9.822536-5.5533931-15.4550287zm-7.6428179 22.9478557c.2678942-.8290538 1.0342653-1.3857364 1.9058539-1.3857364h11.1955867l15.7841131 20.2211563-9.722542 3.6467926h-26.44391139zm60.9522569 42.9309668-15.2848896-20.0696729c-.5104169-.6708545-1.4014073-.9268091-2.1901651-.6313047l-22.4240072 8.412174h-17.0161276c-1.0551595 0-1.9103314.8551719-1.9103314 1.9103314s.8551719 1.9103314 1.9103314 1.9103314h17.3623752c.2290905 0 .4566886-.0410423.6708547-.1216345l21.4188444-8.0353313 12.6611691 16.6251066h-67.29888537c-.64846791 0-1.2387305-.300728-1.6200506-.8253227-.38132011-.5238488-.48579116-1.1782865-.28580354-1.7954132l4.53629087-14.0073556h28.02814324c.2290906 0 .4559425-.0417885.6708547-.1216345l46.5008986-17.4452058 1.3834977 4.2698891-17.1623872 6.4384139c-.5671296.2126736-.9999392.6820479-1.1663469 1.2648482-.1656616.5828003-.0455195 1.2096277.3246072 1.6901957l15.8273939 20.5315849zm15.6691948-.8253227c-.3813201.5245947-.9715827.8253227-1.6200506.8253227h-4.2885448l-16.048276-20.8173885 14.5789626-5.4690697 7.6637123 23.6657223c.1999876.6163803.0955166 1.2708182-.2858035 1.7954132z"/><path d="m48.9038755 44.5318146c9.0584032 0 16.4281037-7.3697003 16.4281037-16.4273575 0-9.0584035-7.3697005-16.4281036-16.4281037-16.4281036-9.0576573 0-16.4273576 7.3697001-16.4273576 16.4281036 0 9.0576572 7.3697003 16.4273575 16.4273576 16.4273575zm0-29.0347983c6.9518153 0 12.6074409 5.6556255 12.6074409 12.6074408s-5.6556256 12.6074409-12.6074409 12.6074409-12.6066948-5.6556256-12.6066948-12.6074409 5.6548795-12.6074408 12.6066948-12.6074408z"/><path d="m13.3746966 81.694476c-.5029545 0-.9954618.2044653-1.3506641.5596673-.3552022.3552024-.5596673.8484559-.5596673 1.3506641s.2044651.9954616.5596673 1.3506641c.3552023.355202.8477096.5596673 1.3506641.5596673.5022082 0 .9947155-.2044653 1.3506639-.5596673.3552023-.3552025.5596675-.8484559.5596675-1.3506641s-.2044652-.9954617-.5596675-1.3506641c-.3559484-.355202-.8484557-.5596673-1.3506639-.5596673z"/></g></g></svg>