<svg height="39" viewBox="0 0 150 39" width="150" xmlns="http://www.w3.org/2000/svg"><g fill="none"><g fill="#000" transform="translate(51.977107 2.965661)"><path d="m49.1050989.12486993c-12.7835588 0-15.421436 4.79188345-15.421436 11.70655567 0 6.8834547 2.5910509 11.6753382 15.421436 11.6753382 12.830385 0 15.3902185-4.7918835 15.3902185-11.6753382 0-6.96149844-2.5130073-11.70655567-15.3902185-11.70655567zm0 21.07180017c-9.1155047 0-10.0208117-3.3870967-10.0208117-9.396462 0-5.97814775.905307-9.36524452 10.0208117-9.36524452 9.1623309 0 10.0208116 3.38709677 10.0208116 9.36524452 0 6.024974-.8584807 9.396462-10.0208116 9.396462z"/><path d="m25.8792924 16.6701353c0-5.8220604-4.5733611-6.5556712-11.6753382-7.18002084-6.55567116-.65556711-9.396462-.32778355-9.396462-3.54318418 0-2.71592091 2.63787721-3.21540062 8.5848075-3.21540062 4.2924037 0 8.3662851.57752341 10.1925078.82726326h.2029136c.2497399 0 .4526535-.0780437.4994797-.37460978l.1716962-1.23309053c0-.0780437.0468262-.17169615.0468262-.24973985 0-.24973986-.1248699-.45265349-.5775234-.53069719-2.3100937-.40582727-6.2747138-.85848075-10.6763788-.85848075-11.09781476 0-13.03329863 2.63787721-13.03329863 6.35275754 0 5.85327784 5.27575443 6.35275754 12.70551513 7.13319464 6.805411.6555671 8.2882414.6243496 8.2882414 3.5119667 0 2.9656607-2.5598335 3.5900104-8.9906348 3.5900104-4.08949009 0-9.31841829-.8272633-11.17585846-1.1082206h-.17169615c-.24973985 0-.45265349.0780437-.49947971.3746097l-.20291363 1.4360042c-.04682622.0780437-.04682622.1716961-.04682622.2497399 0 .2497398.12486992.4058272.57752341.5306971.74921956.1716962 7.38293444 1.0301769 10.89490116 1.0301769 9.0062435-.0624349 14.2819979-.8896982 14.2819979-6.742976z"/><path d="m72.8616025 22.3204995c.7492196.1716961 7.3829344 1.0301769 10.8949011 1.0301769 9.037461 0 14.2663892-.8272633 14.2663892-6.7273673 0-5.8220604-4.5733611-6.5556712-11.6753382-7.18002086-6.5556711-.65556712-9.396462-.32778356-9.396462-3.54318418 0-2.71592092 2.6378772-3.21540063 8.5848075-3.21540063 4.2924038 0 8.3662851.57752342 10.1925078.82726327h.2029136c.2497399 0 .4526535-.0780437.4994797-.37460978l.1716962-1.23309053c0-.07804371.0468262-.17169615.0468262-.24973986 0-.24973985-.1248699-.45265348-.5775234-.53069719-2.3100936-.40582726-6.2747138-.85848074-10.6763788-.85848074-11.0978147 0-13.0332986 2.63787721-13.0332986 6.35275754 0 5.85327786 5.2757544 6.35275756 12.7055151 7.13319456 6.805411.7023934 8.2882414.6555671 8.2882414 3.5431842 0 2.9656608-2.5598335 3.5900104-8.9906348 3.5900104-4.0894901 0-9.3184183-.8272633-11.1758584-1.1082206h-.1716962c-.2497398 0-.4526535.0780437-.4994797.3746098l-.2029136 1.4360042c-.0468263.0780437-.0468263.1716961-.0468263.2497398.0156088.1873049.1404787.3590011.5931322.483871z"/><path d="m1.06139438 30.0312175h-.53069719c-.24973985 0-.28095734.0780437-.28095734.2809573v4.6670135c0 .2029137.07804371.2809574.28095734.2809574h.53069719c.24973986 0 .28095734-.0780437.28095734-.2809574v-4.6670135c.04682622-.2029136-.04682623-.2809573-.28095734-.2809573z"/><path d="m10.66077 30.0312175h-.2029136c-.2029136 0-.2497399.0468262-.2497399.2809573v4.2143601c0 .2029136-.0780437.2029136-.2029136.2029136-.17169614 0-.17169614-.0468262-.28095732-.2029136l-3.05931322-4.2455776c-.12486993-.2029136-.32778356-.2809573-.53069719-.2809573h-1.20187305c-.28095733 0-.53069719.2497399-.53069719.5306972v4.3704474c0 .2497399.04682623.2809574.24973986.2809574h.20291363c.20291363 0 .24973985-.0468262.24973985-.2809574v-4.1675338c0-.2029136.07804371-.2029136.20291363-.2029136.17169615 0 .17169615.0468262.28095734.2029136l3.05931322 4.2455775c.12486992.2029137.32778355.2809574.53069719.2809574h1.20187305c.2809573 0 .5306972-.2497399.5306972-.5306972v-4.4172737c0-.2341311-.0312175-.2809573-.2497399-.2809573z"/><path d="m19.2455775 30.0312175h-6.1030177c-.2497398 0-.2809573.0468262-.2809573.2497398v.0780437c0 .2029137.0468262.2497399.2809573.2497399h2.2632675c.1248699 0 .2029136 0 .2029136.2029136v4.1675338c0 .2029137.0780437.2809574.2809573.2809574h.5775234c.2497399 0 .2809574-.0780437.2809574-.2809574v-4.1675338c0-.2029136.0780437-.2029136.2029136-.2029136h2.2632674c.2497399 0 .2809574-.0468262.2809574-.2497399v-.1248699c.0312175-.1560874 0-.2029136-.2497399-.2029136z"/><path d="m26.1758585 30.0312175h-4.698231c-.2809574 0-.5306972.2497398-.5306972.5306972v4.1207076c0 .2809573.2497398.5306972.5306972.5306972h4.698231c.2497398 0 .2809573-.0468263.2809573-.2497399v-.0780437c0-.2029136-.0468262-.2497399-.2809573-.2497399h-3.8397503c-.1248699 0-.2029136 0-.2029136-.2029136v-1.5608741c0-.2029136.0780437-.2029136.2029136-.2029136h2.7627472c.2497398 0 .2809573-.0468262.2809573-.2497399v-.0780437c0-.2029136-.0468262-.2029136-.2809573-.2029136h-2.7627472c-.1248699 0-.2029136 0-.2029136-.2029136v-1.2018731c0-.2029136.0780437-.2029136.2029136-.2029136h3.8397503c.2497398 0 .2809573-.0468262.2809573-.2497399v-.0780437c.0468262-.1248699-.0312175-.1716961-.2809573-.1716961z"/><path d="m33.3558793 32.9968783c-.2029136-.0468263-.2809573-.0468263-.2809573-.2029137s.0780437-.1716961.2809573-.2029136c.780437-.1716962 1.2330905-.4526535 1.2330905-1.2018731 0-1.1082206-.9521332-1.3579604-2.2632674-1.3579604h-3.3870968c-.2809573 0-.5306972.2497398-.5306972.5306972v4.4172736c0 .2029137.0780437.2809574.2809574.2809574h.5306972c.2497398 0 .2809573-.0780437.2809573-.2809574v-1.685744c0-.2029136.0780437-.2029136.2029136-.2029136l1.9042664.0468262c1.1082206.0468262 1.7325703.2497399 1.7793965.905307l.0468262.9521332c0 .2029136.1248699.2809573.3277836.2809573h.5306971c.2029137 0 .3277836-.0468262.3277836-.2497398v-.0468263l-.0468262-.8272632c.0156087-.905307-.6399584-1.0301769-1.2174818-1.1550468zm-1.7793965-.4526535-1.7793964.0468262c-.1716962 0-.2029137 0-.2029137-.2029136v-1.6545266c0-.2029136.0780437-.2029136.2029137-.2029136h2.1852237c1.0301769 0 1.326743.3277835 1.326743.9833507 0 .8740895-.6555671 1.0301769-1.7325703 1.0301769z"/><path d="m43.7513007 30.0312175h-.2029136c-.2029136 0-.2497399.0468262-.2497399.2809573v4.2143601c0 .2029136-.0780437.2029136-.2029136.2029136-.1716961 0-.1716961-.0468262-.2809573-.2029136l-3.0593132-4.2143601c-.12487-.2029136-.3277836-.2809573-.5306972-.2809573h-1.2018731c-.2809573 0-.5306972.2497398-.5306972.5306972v4.3704474c0 .2497399.0468263.2809574.2497399.2809574h.2029136c.2029136 0 .2497399-.0468263.2497399-.2809574v-4.21436c0-.2029137.0780437-.2029137.2029136-.2029137.1716962 0 .1716962.0468263.2809573.2029137l3.0593133 4.2455775c.1248699.2029136.3277835.2809573.5306971.2809573h1.2018731c.2809573 0 .5306972-.2497398.5306972-.5306971v-4.4172737c-.0156088-.2185224-.0468262-.2653486-.2497399-.2653486z"/><path d="m50.5567118 30.359001c-.12487-.2029136-.2809574-.3277835-.5306972-.3277835h-1.1706556c-.2497399 0-.4058273.1248699-.5306972.3277835l-2.7159209 4.5733611c-.0468262.0780437-.0468262.1248699-.0468262.1716962 0 .0780437.0780437.1248699.2029136.1248699h.4058273c.2029136 0 .2029136-.0780437.2809573-.2029136l.6243496-1.1082206c.0780437-.1716962.12487-.1716962.2809574-.1716962h3.7148803c.1716962 0 .2029136 0 .3277836.1716962l.6243496 1.1082206c.0780437.1248699.1248699.2029136.3277836.2029136h.7492195c.2029137 0 .2497399-.0780437.2497399-.1716962 0-.0468262 0-.0780437-.0468262-.1248699zm.2029136 2.8407909h-3.1373569c-.12487 0-.1716962-.1248699-.12487-.2029136l1.3579605-2.3100937c.0780437-.1716962.1248699-.1716962.3277836-.1716962.1716961 0 .2497398 0 .3277835.1716962l1.3579605 2.3100937c.0936524.1248699.0156087.2029136-.1092612.2029136z"/><path d="m60.2029136 30.0312175h-6.1030177c-.2497398 0-.2809573.0468262-.2809573.2497398v.0780437c0 .2029137.0468262.2497399.2809573.2497399h2.2632675c.1248699 0 .2029136 0 .2029136.2029136v4.1675338c0 .2029137.0780437.2809574.2809573.2809574h.5775235c.2497398 0 .2809573-.0780437.2809573-.2809574v-4.1675338c0-.2029136.0780437-.2029136.2029136-.2029136h2.2632674c.2497399 0 .2809574-.0468262.2809574-.2497399v-.1248699c.0780437-.1560874.0312175-.2029136-.2497399-.2029136z"/><path d="m63.1217482 30.0312175h-.5306972c-.2497399 0-.2809573.0780437-.2809573.2809573v4.6670135c0 .2029137.0780437.2809574.2809573.2809574h.5306972c.2497398 0 .2809573-.0780437.2809573-.2809574v-4.6670135c.0156088-.2029136-.0624349-.2809573-.2809573-.2809573z"/><path d="m69.5213319 29.9063476c-3.0124869 0-3.5900104 1.1082206-3.5900104 2.7159209s.6243497 2.7159209 3.5900104 2.7159209c3.012487 0 3.5900105-1.1082206 3.5900105-2.7159209.0468262-1.6077003-.5775235-2.7159209-3.5900105-2.7159209zm0 4.9011446c-2.1383975 0-2.3569198-.780437-2.3569198-2.1852237s.2029136-2.1852238 2.3569198-2.1852238c2.1540063 0 2.3569199.7804371 2.3569199 2.1852238s-.2185224 2.1852237-2.3569199 2.1852237z"/><path d="m81.44641 30.0312175h-.2029136c-.2029137 0-.2497399.0468262-.2497399.2809573v4.2143601c0 .2029136-.0780437.2029136-.2029136.2029136-.1716962 0-.1716962-.0468262-.2809574-.2029136l-3.0749219-4.2455776c-.1248699-.2029136-.3277836-.2809573-.5306972-.2809573h-1.2018731c-.2809573 0-.5306972.2497399-.5306972.5306972v4.3704474c0 .2497399.0468263.2809574.2497399.2809574h.2029136c.2029137 0 .2497399-.0468262.2497399-.2809574v-4.1675338c0-.2029136.0780437-.2029136.2029136-.2029136.1716962 0 .1716962.0468262.2809574.2029136l3.0593132 4.2455775c.1248699.2029137.3277835.2809574.5306972.2809574h1.201873c.2809573 0 .5306972-.2497399.5306972-.5306972v-4.4172737c.0156087-.2341311-.0312175-.2809573-.2341311-.2809573z"/><path d="m88.251821 30.359001c-.1248699-.2029136-.2809573-.3277835-.5306972-.3277835h-1.1550468c-.2497399 0-.4058273.1248699-.5306972.3277835l-2.7159209 4.5733611c-.0468262.0780437-.0468262.1248699-.0468262.1716962 0 .0780437.0780437.1248699.2029136.1248699h.4058273c.2029136 0 .2029136-.0780437.2809573-.2029136l.6243496-1.1082206c.0780437-.1716962.12487-.1716962.3277836-.1716962h3.7148803c.1716962 0 .2029137 0 .3277836.1716962l.6243496 1.1082206c.0780437.1248699.12487.2029136.3277836.2029136h.7023933c.2029137 0 .2497399-.0780437.2497399-.1716962 0-.0468262 0-.0780437-.0468262-.1248699zm.2029137 2.8407909h-3.137357c-.1248699 0-.1716961-.1248699-.1248699-.2029136l1.3579605-2.3100937c.0780437-.1716962.1248699-.1716962.3277835-.1716962.1716962 0 .2497399 0 .3277836.1716962l1.3579604 2.3100937c.062435.1248699.0156088.2029136-.1092611.2029136z"/><path d="m97.648283 34.6514048h-3.4651404c-.12487 0-.2029137 0-.2029137-.2029136v-4.1207076c0-.2029137-.0780437-.2809574-.2809573-.2809574h-.5306972c-.2497399 0-.2809573.0780437-.2809573.2809574v4.3704474c0 .2809573.2497398.5306972.5306972.5306972h4.3236212c.2497398 0 .2809573-.0468262.2809573-.2497399v-.1248699c-.0780437-.1716961-.1248699-.2029136-.3746098-.2029136z"/></g><g fill="#f50a37"><path d="m13.1425598 4.16753382-1.1082206-2.71592092s0-.04682622-.0468262-.04682622h-.0468262c-1.0301769.45265349-2.01352759.9521332-2.96566079 1.56087409l-.04682622.04682622v.04682623l1.65452651 2.43496358c0 .04682622.0468262.04682622.0780437.04682622.7492196-.49947971 1.5296566-.90530697 2.3881374-1.23309053.0936524-.06243497.0936524-.10926119.0936524-.14047867z"/><path d="m8.89698231 6.75858481-1.90426639-2.23204995-.04682622-.04682622h-.04682622c-.85848075.74921956-1.65452654 1.5296566-2.35691988 2.38813735v.04682623s0 .04682622.04682622.04682622l2.31009366 1.81061394h.0780437c.57752341-.70239334 1.20187305-1.32674297 1.90426639-1.93548387.01560874-.03121748.01560874-.03121748.01560874-.0780437z"/><path d="m18.012487 3.01248699-.2029136-2.93444329s0-.04682622-.0468263-.04682622h-.0468262c-1.1082206.07804371-2.2320499.28095734-3.2934443.53069719 0 0-.0468262 0-.0468262.04682622v.04682623l.780437 2.80957336c0 .04682622.0468262.04682622.0780437.04682622.8584808-.20291363 1.7325703-.37460978 2.6847034-.45265348.0936525.03121748.0936525-.01560875.0936525-.04682623z"/><path d="m33.1997919 32.0915713h.0468262.0468262c3.1373569-3.3870968 5.0728408-7.9136317 5.119667-12.8616025.0468263-3.6680541-.9833506-7.1331946-2.8095733-10.06763789l-.0468262-.04682623h-.0468263l-2.4817898 1.56087412c-.0468262 0-.0468262.0468262 0 .0780437 1.4828304 2.4349636 2.3100937 5.3225806 2.3100937 8.4131113-.0468262 4.2143601-1.6545265 7.9604579-4.2455775 10.8012487-.0468263.0468262-.0468263.0780437 0 .0780437z"/><path d="m.15608741 18.9334027c-.04682622 5.1508845 1.98231009 9.817898 5.27575442 13.2830385h.04682622.04682623l2.10718002-2.0135276c.04682622-.0468262.04682622-.0780437 0-.0780437-2.76274714-2.9344433-4.41727368-6.805411-4.41727368-11.1290322.04682623-3.012487.85848075-5.8220604 2.31009366-8.2101977 0-.0468263 0-.0780437 0-.0780437-.78043705-.4994798-1.73257024-1.07700317-2.48178981-1.56087414h-.04682622s-.04682622 0-.04682622.04682623c-1.76378772 2.76274711-2.7471384 6.14984391-2.79396462 9.73985431z"/><path d="m7.49219563 34.1519251s0 .0468262.04682622.0468262c3.16857445 2.4817898 7.21123825 3.9958377 11.55046825 4.0426639 4.5421436.0468262 8.7096774-1.4828304 12.0031218-4.0894901l.0468262-.0468262v-.0468263l-1.9823101-2.1852237c-.0468262-.0468262-.0780437-.0468262-.0780437 0-2.7627472 2.10718-6.1810614 3.3870968-9.942768 3.3402706-3.5900104-.0468263-6.8834547-1.2330906-9.52133191-3.2622269-.04682622 0-.0780437 0-.0780437 0l-1.9823101 2.1852237c-.06243496-.0312174-.06243496-.0312174-.06243496.0156088z"/><path d="m25.3954214 4.16753382 1.1082206-2.71592092s0-.04682622.0468263-.04682622h.0468262c1.0301769.45265349 2.0135276.9521332 2.9656608 1.56087409l.0468262.04682622v.04682623l-1.6545266 2.43496358c0 .04682622-.0468262.04682622-.0780437.04682622-.7492195-.49947971-1.5296566-.90530697-2.3881373-1.23309053-.0936525-.06243497-.1248699-.10926119-.0936525-.14047867z"/><path d="m29.6878252 6.75858481 1.9042664-2.23204995.0468262-.04682622h.0468262c.8584808.74921956 1.6545266 1.5296566 2.3569199 2.38813735v.04682623s0 .04682622-.0468262.04682622l-2.3100937 1.81061394c-.0468262 0-.0468262 0-.0780437 0-.5775234-.70239334-1.201873-1.32674297-1.9042664-1.93548387-.0624349-.03121748-.0624349-.03121748-.0156087-.0780437z"/><path d="m20.4942768 3.01248699.2029136-2.93444329s0-.04682622.0468262-.04682622h.0468263c1.1082206.07804371 2.2320499.28095734 3.2934443.53069719 0 0 .0468262 0 .0468262.04682622v.04682623l-.780437 2.80957336c0 .04682622-.0468262.04682622-.0780437.04682622-.8584808-.20291363-1.7325703-.37460978-2.6847035-.45265348-.0936524.03121748-.0936524-.01560875-.0936524-.04682623z"/></g></g></svg>